<?xml version="1.0" standalone="no"?>
<!DOCTYPE svg PUBLIC "-//W3C//DTD SVG 1.1//EN" "http://www.w3.org/Graphics/SVG/1.1/DTD/svg11.dtd" >
<svg xmlns="http://www.w3.org/2000/svg">
<metadata></metadata>
<defs>
<font id="foundation_sansregular" horiz-adv-x="1024" >
<font-face units-per-em="2048" ascent="1690" descent="-358" />
<missing-glyph horiz-adv-x="614" />
<glyph unicode="&#xfb01;" horiz-adv-x="1005" d="M25 840v149h139v162q0 129 60.5 184.5t201.5 55.5q35 0 100 -11v-159q-53 6 -71 6q-61 0 -82 -27.5t-21 -107.5v-103h174v-149h-174v-840h-188v840h-139zM680 0v989h188v-989h-188zM680 1147v219h188v-219h-188z" />
<glyph unicode="&#xfb02;" horiz-adv-x="1005" d="M25 840v149h139v162q0 129 60.5 184.5t201.5 55.5q35 0 100 -11v-159q-53 6 -71 6q-61 0 -82 -27.5t-21 -107.5v-103h174v-149h-174v-840h-188v840h-139zM680 0v1366h188v-1366h-188z" />
<glyph horiz-adv-x="2048" />
<glyph horiz-adv-x="2048" />
<glyph unicode="&#xd;" horiz-adv-x="2048" />
<glyph unicode=" "  horiz-adv-x="614" />
<glyph unicode="&#x09;" horiz-adv-x="614" />
<glyph unicode="&#xa0;" horiz-adv-x="614" />
<glyph unicode="!" horiz-adv-x="507" d="M152 0v205h204v-205h-204zM156 817v549h198v-549l-53 -489h-94z" />
<glyph unicode="&#x22;" horiz-adv-x="735" d="M88 1366h219l-35 -547h-149zM430 1366h217l-35 -547h-149z" />
<glyph unicode="#" horiz-adv-x="1261" d="M135 465l15 98h243l31 219h-244l15 101h243l51 360h103l-51 -360h231l51 360h103l-52 -360h254l-14 -101h-254l-31 -219h254l-14 -98h-254l-55 -393h-103l56 393h-232l-53 -393h-104l55 393h-244zM496 563h231l31 219h-232z" />
<glyph unicode="$" horiz-adv-x="1146" d="M45 467h191q19 -152 80 -220t196 -87v465q-83 23 -152 45q-137 46 -201.5 123.5t-64.5 195.5q0 127 82.5 229.5t214.5 139.5q41 11 121 20v158h129v-158q195 -13 308 -117.5t116 -273.5h-191q-3 97 -65 156t-168 67v-424l21 -4q219 -49 296 -96q68 -40 107 -113.5 t39 -162.5q0 -182 -127 -298.5t-336 -123.5v-158h-129v160q-458 53 -467 477zM291 997q0 -45 22.5 -78t70.5 -57.5t128 -44.5v391q-70 -12 -119.5 -41t-75.5 -72t-26 -98zM641 160q121 9 190.5 70.5t69.5 158.5q0 82 -50.5 125t-182.5 72l-27 8v-434z" />
<glyph unicode="%" horiz-adv-x="1417" d="M68 1022q0 169 67 259.5t191 90.5q126 0 192 -90.5t66 -263.5q0 -166 -67.5 -256t-190.5 -90q-124 0 -191 90.5t-67 259.5zM190 1022q0 -234 136 -234q135 0 135 232q0 120 -33 177.5t-102 57.5q-136 0 -136 -233zM401 0l510 1366h109l-512 -1366h-107zM834 344 q0 169 66.5 259.5t189.5 90.5q126 0 192 -91t66 -263q0 -166 -67.5 -256t-190.5 -90t-189.5 90.5t-66.5 259.5zM956 344q0 -233 136 -233q133 0 133 231q0 120 -33 178t-102 58q-134 0 -134 -234z" />
<glyph unicode="&#x26;" horiz-adv-x="1161" d="M82 354q0 122 67 215t230 197q-81 107 -112 174.5t-31 138.5q0 119 85.5 198t215.5 79q133 0 218 -79t85 -204q0 -97 -51.5 -176t-172.5 -168l189 -254q17 46 29 156h155q-5 -160 -63 -316l231 -315h-205l-118 158q-137 -174 -353 -174q-172 0 -285.5 105t-113.5 265z M266 365q0 -92 66 -155t164 -63q150 0 239 148l-258 342q-211 -112 -211 -272zM406 1077q0 -44 26.5 -94t93.5 -131q6 6 21 16q123 99 123 201q0 55 -38 92t-95 37q-55 0 -93 -35t-38 -86z" />
<glyph unicode="'" horiz-adv-x="401" d="M88 1366h225l-34 -547h-156z" />
<glyph unicode="(" horiz-adv-x="636" d="M100 547q0 206 73.5 416t211.5 403h135q-118 -196 -173.5 -397.5t-55.5 -433.5q0 -452 229 -848h-135q-146 222 -215.5 432.5t-69.5 427.5z" />
<glyph unicode=")" horiz-adv-x="636" d="M117 -313q118 196 173.5 397t55.5 434q0 449 -229 848h135q145 -223 215 -433.5t70 -426.5q0 -206 -73.5 -416t-211.5 -403h-135z" />
<glyph unicode="*" horiz-adv-x="774" d="M82 1085l51 156l178 -63l-6 188h164l-6 -188l178 63l51 -156l-182 -53l117 -149l-133 -97l-107 156l-106 -156l-134 97l117 149z" />
<glyph unicode="+" d="M39 655v105h418v399h106v-399h420v-105h-420v-397h-106v397h-418z" />
<glyph unicode="," horiz-adv-x="487" d="M137 0v205h211v-174q0 -125 -54 -204.5t-157 -105.5v123q43 22 62.5 59t19.5 97h-82z" />
<glyph unicode="-" horiz-adv-x="606" d="M0 475v170h606v-170h-606z" />
<glyph unicode="." horiz-adv-x="487" d="M137 0v205h211v-205h-211z" />
<glyph unicode="/" horiz-adv-x="778" d="M47 0l518 1366h162l-518 -1366h-162z" />
<glyph unicode="0" horiz-adv-x="1146" d="M104 678q0 302 97 477q60 106 158 165.5t214 59.5q120 0 218.5 -59t156.5 -166q51 -93 73.5 -208.5t22.5 -278.5q0 -293 -96 -469q-59 -106 -158 -166t-217 -60q-117 0 -216 60t-156 166q-97 178 -97 479zM295 678q0 -246 57 -377q31 -72 91 -115t130 -43 q71 0 131.5 42.5t92.5 115.5q57 134 57 369q0 251 -57 383q-32 73 -92.5 115t-131.5 42t-130 -42t-91 -115q-57 -134 -57 -375z" />
<glyph unicode="1" horiz-adv-x="1146" d="M225 971v133q132 -4 228.5 64t121.5 184h140v-1352h-180v971h-310z" />
<glyph unicode="2" horiz-adv-x="1146" d="M117 0q0 188 103.5 329t361.5 308q152 97 204 164.5t52 165.5q0 107 -69.5 175t-178.5 68q-85 0 -145.5 -40.5t-86.5 -114.5q-18 -55 -18 -174h-182v51q0 196 96 309q123 139 342 139q194 0 313 -113.5t119 -297.5q0 -176 -121 -303q-40 -42 -86 -76t-196 -131 q-106 -71 -184 -151t-97 -138h668v-170h-895z" />
<glyph unicode="3" horiz-adv-x="1146" d="M109 449h180q6 -138 87.5 -222t209.5 -84q114 0 189 67.5t75 170.5q0 112 -86.5 185t-218.5 67l-45 -2v155q16 -2 37 -2q122 0 198 61.5t76 158.5q0 91 -63.5 148.5t-161.5 57.5q-116 0 -180.5 -72.5t-63.5 -201.5h-178q0 204 116 324t314 120q175 0 291 -104.5 t116 -263.5q0 -98 -47.5 -169.5t-148.5 -125.5q120 -58 177.5 -141t57.5 -197q0 -175 -127.5 -290.5t-322.5 -115.5q-212 0 -345.5 132.5t-135.5 343.5z" />
<glyph unicode="4" horiz-adv-x="1146" d="M100 311v185l609 856h157v-887h168v-154h-168v-311h-180v311h-586zM272 465h414v473l2 49q0 25 4 86q-80 -126 -108 -164z" />
<glyph unicode="5" horiz-adv-x="1146" d="M127 381l176 12q28 -125 100.5 -190.5t182.5 -65.5q120 0 197 86.5t77 218.5t-78.5 215.5t-201.5 83.5q-144 0 -258 -120h-168l106 731h713v-170h-570l-53 -357q122 74 256 74q194 0 316 -125t122 -323q0 -209 -130 -343.5t-332 -134.5q-188 0 -310 109.5t-145 298.5z " />
<glyph unicode="6" horiz-adv-x="1146" d="M113 647q0 341 134 537t367 196q164 0 270.5 -99.5t131.5 -276.5h-178q-52 219 -228 219q-140 0 -223 -133.5t-98 -382.5q79 92 152 128.5t173 36.5q185 0 302.5 -123.5t117.5 -318.5q0 -200 -121.5 -328.5t-310.5 -128.5q-226 0 -357.5 181t-131.5 493zM334 424 q0 -123 74 -205t184 -82q109 0 183.5 81.5t74.5 201.5q0 126 -73 207.5t-187 81.5q-111 0 -183.5 -80.5t-72.5 -204.5z" />
<glyph unicode="7" horiz-adv-x="1146" d="M139 1182v170h883v-146q-209 -201 -341.5 -508t-178.5 -698h-205q44 344 187 666t337 516h-682z" />
<glyph unicode="8" horiz-adv-x="1146" d="M106 389q0 228 232 356q-170 99 -170 285q0 152 115 251t290 99t289.5 -99t114.5 -251q0 -186 -170 -285q231 -127 231 -356q0 -178 -132.5 -297t-332.5 -119q-201 0 -334 118.5t-133 297.5zM297 399q0 -113 77.5 -184.5t198.5 -71.5q119 0 197 71.5t78 180.5 q0 115 -77 186.5t-200 71.5q-120 0 -197 -72t-77 -182zM352 1016q0 -86 62 -140.5t159 -54.5q96 0 158 54.5t62 138.5q0 88 -61 142t-161 54q-97 0 -158 -54t-61 -140z" />
<glyph unicode="9" horiz-adv-x="1146" d="M113 924q0 200 121.5 328t310.5 128q226 0 357.5 -181t131.5 -494q0 -340 -134.5 -536t-367.5 -196q-164 0 -270.5 99t-132.5 276h180q52 -217 228 -217q140 0 223 133.5t98 380.5q-80 -91 -153.5 -128.5t-172.5 -37.5q-184 0 -301.5 125t-117.5 320zM297 934 q0 -126 73 -208.5t187 -82.5q110 0 183 81t73 204q0 124 -74 206.5t-184 82.5q-109 0 -183.5 -81.5t-74.5 -201.5z" />
<glyph unicode=":" horiz-adv-x="487" d="M137 0v205h211v-205h-211zM137 784v205h211v-205h-211z" />
<glyph unicode=";" horiz-adv-x="487" d="M137 0v205h211v-174q0 -125 -54 -204.5t-157 -105.5v123q43 22 62.5 59t19.5 97h-82zM137 784v205h211v-205h-211z" />
<glyph unicode="&#x3c;" d="M68 600v174l886 434v-204l-669 -318l669 -317v-201z" />
<glyph unicode="=" d="M39 512v100h946v-100h-946zM39 805v100h946v-100h-946z" />
<glyph unicode="&#x3e;" d="M70 168v203l669 317l-669 318v202l886 -434v-174z" />
<glyph unicode="?" horiz-adv-x="1007" d="M74 911q6 232 123.5 357t328.5 125q187 0 303.5 -103.5t116.5 -269.5q0 -121 -74 -213q-5 -6 -8.5 -10.5t-9 -10.5t-8.5 -10t-12 -12.5t-15 -14.5t-20.5 -20t-25.5 -24.5t-33.5 -32t-41.5 -39.5q-67 -62 -88.5 -123t-21.5 -182h-166v49q0 134 59 239q44 78 164 193 q68 66 92.5 110t24.5 101q0 94 -69 154.5t-175 60.5q-264 0 -270 -324h-174zM397 0v205h211v-205h-211z" />
<glyph unicode="@" horiz-adv-x="1402" d="M53 662q0 94 24.5 183.5t68 164.5t107 138.5t138.5 107t164.5 68t183.5 24.5q167 0 307.5 -74.5t222 -204t81.5 -283.5q0 -233 -179 -380q-128 -103 -249 -103q-57 0 -94 28t-46 79q-59 -57 -110 -82t-109 -25q-98 0 -159.5 70t-61.5 180q0 116 55.5 226.5t146 178.5 t185.5 68q131 0 189 -123l32 92h109l-164 -481q-18 -55 -18 -84t19.5 -46t53.5 -17q95 0 197 102q127 130 127 313q0 137 -71 251t-194 179.5t-270 65.5q-168 0 -307.5 -81.5t-219 -222.5t-79.5 -312q0 -167 79 -306.5t216.5 -220t302.5 -80.5q157 0 295.5 79t212.5 210 l84 -2q-74 -160 -238 -259t-356 -99q-139 0 -264.5 53.5t-215.5 144t-143 216t-53 264.5zM461 520q0 -71 33 -113t88 -42q77 0 139 65q41 43 84 158l47 129q25 74 25 108q0 57 -34.5 96.5t-84.5 39.5q-70 0 -139.5 -65t-113.5 -168.5t-44 -207.5z" />
<glyph unicode="A" horiz-adv-x="1255" d="M20 0l502 1366h209l504 -1366h-213l-141 410h-514l-140 -410h-207zM424 573h401l-200 582z" />
<glyph unicode="B" horiz-adv-x="1318" d="M162 0v1366h528q132 0 209 -17t141 -59q142 -94 142 -276q0 -103 -46.5 -174.5t-146.5 -122.5q120 -44 177 -122.5t57 -201.5q0 -100 -41.5 -181.5t-116.5 -131.5q-68 -44 -157 -62t-244 -18h-502zM346 170h397q131 0 206 60.5t75 166.5q0 107 -68 165.5t-192 58.5h-418 v-451zM346 780h367q134 0 200 54q70 58 70 153q0 98 -70 156q-64 53 -200 53h-367v-416z" />
<glyph unicode="C" horiz-adv-x="1394" d="M104 688q0 206 81 367.5t227 251.5t331 90q218 0 365.5 -117t191.5 -324l-190 -18q-31 135 -128.5 212t-238.5 77q-196 0 -315 -146.5t-119 -388.5q0 -248 118 -400.5t310 -152.5q159 0 263.5 102t127.5 279h197q-12 -101 -38.5 -173.5t-78.5 -143.5q-170 -234 -475 -234 q-304 0 -479 234q-150 204 -150 485z" />
<glyph unicode="D" horiz-adv-x="1361" d="M162 0v1366h491q333 0 482 -219q122 -177 122 -451q0 -323 -165.5 -509.5t-452.5 -186.5h-477zM356 170h244q232 0 345.5 128.5t113.5 391.5q0 228 -88 359q-53 77 -138.5 112t-220.5 35h-256v-1026z" />
<glyph unicode="E" horiz-adv-x="1230" d="M162 0v1366h958v-170h-764v-412h699v-159h-699v-455h791v-170h-985z" />
<glyph unicode="F" horiz-adv-x="1124" d="M162 0v1366h921v-170h-727v-410h611v-163h-611v-623h-194z" />
<glyph unicode="G" horiz-adv-x="1466" d="M104 682q0 319 179.5 517t468.5 198q226 0 377 -121.5t182 -327.5h-195q-29 132 -125.5 205.5t-242.5 73.5q-201 0 -320 -143t-119 -384q0 -252 124 -405.5t325 -153.5q109 0 197.5 53t131.5 142q26 52 37.5 103.5t16.5 133.5h-404v160h594v-733h-145l-12 227 q-34 -60 -62.5 -93.5t-69.5 -65.5q-129 -99 -315 -99q-181 0 -323 90t-221 252.5t-79 370.5z" />
<glyph unicode="H" horiz-adv-x="1396" d="M162 0v1366h194v-569h686v569h195v-1366h-195v627h-686v-627h-194z" />
<glyph unicode="I" horiz-adv-x="516" d="M162 0v1366h194v-1366h-194z" />
<glyph unicode="J" horiz-adv-x="985" d="M27 449h194q3 -131 21 -187q45 -123 184 -123q102 0 154 68q27 33 38 77t11 117v965h194v-969q0 -121 -19.5 -190t-68.5 -121q-108 -117 -309 -117q-138 0 -234.5 59t-136.5 167q-25 72 -28 254z" />
<glyph unicode="K" horiz-adv-x="1323" d="M162 0v1366h194v-659l658 659h248l-560 -549l617 -817h-240l-504 692l-219 -215v-477h-194z" />
<glyph unicode="L" horiz-adv-x="1107" d="M162 0v1366h194v-1196h711v-170h-905z" />
<glyph unicode="M" horiz-adv-x="1644" d="M162 0v1366h239l340 -874q41 -107 82 -242q60 180 82 237l338 879h240v-1366h-185v803q0 105 11 299q-49 -165 -101 -299l-309 -803h-154l-317 819q-40 98 -92 283q10 -170 10 -299v-803h-184z" />
<glyph unicode="N" horiz-adv-x="1396" d="M162 0v1366h198l537 -831q87 -133 162 -283q-6 114 -6 256v858h184v-1366h-197l-559 862q-74 112 -141 236q6 -92 6 -258v-840h-184z" />
<glyph unicode="O" horiz-adv-x="1529" d="M104 684q0 205 84 368t234.5 254t339.5 91q294 0 477.5 -201t183.5 -522q0 -201 -85 -362.5t-235.5 -252t-338.5 -90.5q-190 0 -341 91t-235 254.5t-84 369.5zM303 684q0 -243 127.5 -394t333.5 -151q203 0 332 150.5t129 386.5q0 249 -127 400t-334 151 q-205 0 -333 -150.5t-128 -392.5z" />
<glyph unicode="P" horiz-adv-x="1214" d="M162 0v1366h479q137 0 223.5 -22t153.5 -76q65 -53 100 -133.5t35 -178.5q0 -185 -127 -297q-66 -58 -148.5 -81t-222.5 -23h-299v-555h-194zM356 715h314q150 0 219 63q76 67 76 176q0 112 -76 179q-69 63 -219 63h-314v-481z" />
<glyph unicode="Q" horiz-adv-x="1495" d="M104 684q0 205 84 368t235 254t341 91q191 0 342 -91t235 -254t84 -370q0 -156 -54.5 -297t-149.5 -233l170 -164l-125 -127l-189 184q-140 -76 -313 -76q-190 0 -341 91t-235 254.5t-84 369.5zM303 684q0 -243 128.5 -394t332.5 -151q94 0 178 35l-143 139l125 127 l166 -159q137 152 137 403q0 241 -128.5 392t-332.5 151q-206 0 -334.5 -151t-128.5 -392z" />
<glyph unicode="R" horiz-adv-x="1308" d="M162 0v1366h557q134 0 214.5 -20.5t141.5 -71.5q125 -101 125 -289q0 -117 -51 -197.5t-160 -136.5q81 -36 117 -101t45 -188l8 -114q7 -98 22 -151.5t46 -96.5h-238q-6 21 -9.5 43.5t-5.5 39t-7 70t-9 95.5l-10 100q-11 105 -67 160t-152 55h-373v-563h-194zM356 723 h326q152 0 227 57q43 31 67.5 82.5t24.5 108.5q0 106 -68 165.5t-188 59.5h-389v-473z" />
<glyph unicode="S" horiz-adv-x="1318" d="M88 477h203q15 -163 118 -250.5t281 -87.5q148 0 242 65.5t94 168.5q0 152 -217 205l-307 73q-187 44 -275 130.5t-88 224.5q0 180 138.5 285.5t373.5 105.5q234 0 363.5 -112t161.5 -341h-199q-30 281 -340 281q-135 0 -217 -54t-82 -143q0 -75 58.5 -122.5t187.5 -76.5 l221 -49q121 -28 190 -57.5t119 -73.5q111 -97 111 -262q0 -193 -146 -305.5t-395 -112.5q-266 0 -420 131t-176 377z" />
<glyph unicode="T" horiz-adv-x="1087" d="M20 1196v170h1047v-170h-426v-1196h-195v1196h-426z" />
<glyph unicode="U" horiz-adv-x="1392" d="M162 473v893h194v-920q0 -145 90.5 -226t251.5 -81q160 0 250 81t90 226v920h195v-893q0 -126 -29 -211.5t-92 -148.5q-147 -144 -416 -144q-266 0 -413 144q-63 63 -92 148.5t-29 211.5z" />
<glyph unicode="V" horiz-adv-x="1206" d="M20 1366h205l295 -889q33 -97 90 -295q39 153 84 295l287 889h205l-473 -1366h-211z" />
<glyph unicode="W" horiz-adv-x="1726" d="M20 1366h195l207 -881q10 -40 17 -72t11 -51.5t7.5 -43t5 -31.5t4.5 -33.5t4 -34.5q2 9 4 20l3 16.5t1 8.5l13 70q23 126 30 151l213 881h244l217 -854q13 -50 32 -148t25 -145q25 162 56 293l204 854h193l-350 -1366h-205l-238 926q-38 145 -55 270q-15 -110 -55 -270 l-230 -926h-204z" />
<glyph unicode="X" horiz-adv-x="1206" d="M18 0l471 705l-456 661h231l336 -510l334 510h229l-454 -661l479 -705h-225l-363 551l-350 -551h-232z" />
<glyph unicode="Y" horiz-adv-x="1198" d="M-4 1366h229l269 -451q47 -82 108 -202q54 108 109 202l262 451h229l-495 -825v-541h-195v541z" />
<glyph unicode="Z" horiz-adv-x="1214" d="M68 0v170l802 1026h-727v170h969v-170l-807 -1026h852v-170h-1089z" />
<glyph unicode="[" horiz-adv-x="649" d="M141 -313v1679h385v-149h-196v-1381h196v-149h-385z" />
<glyph unicode="\" horiz-adv-x="778" d="M51 1366h162l518 -1366h-162z" />
<glyph unicode="]" horiz-adv-x="649" d="M123 -164h196v1381h-196v149h385v-1679h-385v149z" />
<glyph unicode="^" d="M55 752l342 618h232l342 -618h-189l-270 479l-270 -479h-187z" />
<glyph unicode="_" d="M0 -137h1024v-129h-1024v129z" />
<glyph unicode="`" d="M283 1305h231l90 -226h-149z" />
<glyph unicode="a" horiz-adv-x="1069" d="M88 266q0 240 299 299l219 43q89 17 116.5 37t27.5 66q0 72 -59 113.5t-159 41.5q-72 0 -125 -22t-73 -62q-18 -35 -23 -120h-176q11 164 80 241q47 54 132 83.5t190 29.5q183 0 284 -84t101 -238v-465q0 -58 10.5 -76t42.5 -18q20 0 49 10v-145q-75 -14 -123 -14 q-66 0 -101.5 31.5t-45.5 101.5q-146 -146 -342 -146q-145 0 -234.5 81t-89.5 212zM279 274q0 -68 50.5 -109.5t133.5 -41.5q120 0 205.5 76t85.5 182v127q-54 -22 -117 -37l-193 -45q-86 -20 -125.5 -56.5t-39.5 -95.5z" />
<glyph unicode="b" horiz-adv-x="1155" d="M137 0v1366h189v-489q71 72 146.5 105.5t168.5 33.5q192 0 309 -141.5t117 -374.5q0 -242 -117 -384.5t-315 -142.5q-95 0 -166.5 32t-142.5 106v-111h-189zM319 500q0 -179 72 -274t207 -95q134 0 206.5 95t72.5 270q0 173 -72.5 267.5t-206.5 94.5q-132 0 -205.5 -94 t-73.5 -264z" />
<glyph unicode="c" horiz-adv-x="1083" d="M88 496q0 236 135 378t359 142q181 0 293.5 -95.5t132.5 -267.5h-179q-44 205 -249 205q-135 0 -218 -99t-83 -261q0 -166 82.5 -266.5t218.5 -100.5q222 0 262 240h178q-20 -189 -136.5 -293.5t-308.5 -104.5q-221 0 -354 143t-133 380z" />
<glyph unicode="d" horiz-adv-x="1155" d="M86 500q0 236 116.5 376t313.5 140q95 0 169.5 -32t143.5 -101v483h189v-1366h-189v106q-71 -69 -145.5 -101t-167.5 -32q-197 0 -313.5 143t-116.5 384zM276 496q0 -174 73.5 -269.5t207.5 -95.5t208.5 94t74.5 264q0 178 -73 273.5t-210 95.5q-134 0 -207.5 -94.5 t-73.5 -267.5z" />
<glyph unicode="e" horiz-adv-x="1083" d="M88 496q0 230 129.5 375t335.5 145q147 0 251 -76t154 -219q36 -107 39 -272h-721q11 -152 85.5 -235t201.5 -83q174 0 240 172h180q-35 -155 -147.5 -242.5t-276.5 -87.5q-209 0 -340 146t-131 377zM279 586h522q-6 135 -70.5 207.5t-177.5 72.5q-115 0 -190.5 -77.5 t-83.5 -202.5z" />
<glyph unicode="f" horiz-adv-x="542" d="M25 840v149h139v162q0 129 60.5 184.5t201.5 55.5q35 0 100 -11v-159q-53 6 -71 6q-61 0 -82 -27.5t-21 -107.5v-103h174v-149h-174v-840h-188v840h-139z" />
<glyph unicode="g" horiz-adv-x="1122" d="M88 516q0 220 119.5 360t308.5 140q96 0 163.5 -31.5t129.5 -103.5l-4 108h180v-950q0 -194 -100 -275q-119 -104 -346 -104q-223 0 -330 113q-33 34 -49.5 75.5t-22.5 106.5h180q15 -145 228 -145q134 0 197 58t63 181v113q-120 -129 -293 -129q-186 0 -305 135 t-119 348zM279 524q0 -152 71.5 -239.5t194.5 -87.5q122 0 193 87t71 236q0 155 -71 243.5t-195 88.5q-122 0 -193 -88t-71 -240z" />
<glyph unicode="h" horiz-adv-x="1103" d="M137 0v1366h189v-467q70 64 138.5 91.5t156.5 27.5q182 0 278 -117q35 -44 50.5 -99t15.5 -140v-662h-189v631q0 65 -9 100.5t-32 61.5q-51 57 -151 57q-122 0 -190 -70t-68 -196v-584h-189z" />
<glyph unicode="i" horiz-adv-x="462" d="M137 0v989h189v-989h-189zM137 1147v219h189v-219h-189z" />
<glyph unicode="j" horiz-adv-x="487" d="M-14 -137q48 -13 73 -13q103 0 103 144v995h188v-1032q0 -75 -12 -120t-41 -79q-65 -71 -201 -71q-51 0 -110 12v164zM162 1147v219h188v-219h-188z" />
<glyph unicode="k" horiz-adv-x="1044" d="M137 0v1366h189v-750l424 373h249l-399 -352l438 -637h-229l-342 518l-141 -125v-393h-189z" />
<glyph unicode="l" horiz-adv-x="462" d="M137 0v1366h189v-1366h-189z" />
<glyph unicode="m" horiz-adv-x="1587" d="M137 0v989h180v-125q57 85 117 118.5t152 33.5q98 0 160 -40.5t96 -125.5q59 90 127 128t172 38q160 0 243 -103q64 -79 64 -241v-672h-188v657q0 191 -164 191q-97 0 -153 -66t-56 -180v-602h-189v674q0 84 -42.5 129t-120.5 45q-95 0 -152 -64.5t-57 -171.5v-612h-189z " />
<glyph unicode="n" horiz-adv-x="1103" d="M137 0v989h180v-112q74 77 143.5 108t170.5 31q182 0 268 -109q35 -46 50.5 -102.5t15.5 -142.5v-662h-189v647q0 201 -190 201q-121 0 -190.5 -66t-69.5 -182v-600h-189z" />
<glyph unicode="o" horiz-adv-x="1126" d="M88 496q0 232 131.5 376t343.5 144q217 0 347 -144.5t130 -384.5q0 -228 -132.5 -371t-344.5 -143t-343.5 145t-131.5 378zM279 496q0 -173 75 -269t211 -96q134 0 209.5 95t75.5 263q0 177 -74.5 273t-212.5 96q-135 0 -209.5 -95t-74.5 -267z" />
<glyph unicode="p" horiz-adv-x="1150" d="M137 -313v1302h189v-100q69 68 140.5 98.5t160.5 30.5q198 0 318 -145t120 -386q0 -235 -114.5 -374.5t-307.5 -139.5q-198 0 -317 140v-426h-189zM315 502q0 -174 66 -266q35 -49 92 -77t123 -28q133 0 205.5 95t72.5 270t-72.5 269.5t-205.5 94.5t-207 -94.5 t-74 -263.5z" />
<glyph unicode="q" horiz-adv-x="1150" d="M88 498q0 238 117.5 378t316.5 140q92 0 164 -31.5t139 -101.5v106h189v-1302h-189v422q-73 -71 -147.5 -103.5t-167.5 -32.5q-190 0 -306 144.5t-116 380.5zM279 496q0 -175 72.5 -270t205.5 -95q132 0 205.5 94t73.5 264q0 179 -72 274t-207 95q-133 0 -205.5 -95 t-72.5 -267z" />
<glyph unicode="r" horiz-adv-x="712" d="M137 0v989h180v-155q55 79 82 104q34 34 83 56t93 22q57 0 105 -25v-170q-51 10 -86 10q-114 0 -191 -89.5t-77 -221.5v-520h-189z" />
<glyph unicode="s" horiz-adv-x="995" d="M70 340h186q7 -98 78 -153.5t188 -55.5q100 0 161.5 42t61.5 110q0 50 -35.5 79.5t-121.5 51.5l-197 49q-150 39 -209 92q-34 29 -53.5 75t-19.5 95q0 127 107 209t273 82q106 0 190.5 -34t137.5 -97q32 -40 48 -85t22 -114h-180q-20 92 -73.5 133t-152.5 41 q-84 0 -136 -32.5t-52 -84.5q0 -73 115 -102l229 -59q155 -40 224 -108.5t69 -182.5q0 -145 -112 -231.5t-300 -86.5q-201 0 -317 95t-131 272z" />
<glyph unicode="t" horiz-adv-x="557" d="M31 840v149h133v314h188v-314h178v-149h-178v-621q0 -43 19.5 -66.5t54.5 -23.5q28 0 104 27v-154q-105 -22 -157 -22q-106 0 -157.5 59t-51.5 180v621h-133z" />
<glyph unicode="u" horiz-adv-x="1103" d="M137 328v661h189v-647q0 -201 190 -201q121 0 190.5 66t69.5 182v600h189v-989h-181v113q-74 -77 -143.5 -108.5t-169.5 -31.5q-182 0 -268 109q-35 46 -50.5 103t-15.5 143z" />
<glyph unicode="v" horiz-adv-x="903" d="M6 989h201l168 -530q19 -60 78 -277q47 192 73 273l168 534h201l-342 -989h-207z" />
<glyph unicode="w" horiz-adv-x="1380" d="M6 989h195l145 -514q4 -14 37 -153l23 -119q2 9 16 78l22 100q3 16 12 46.5t13 45.5l133 516h178l138 -510q30 -115 57 -276q43 199 63 274l138 512h196l-301 -989h-190l-125 461q-38 144 -64 256q-37 -157 -186 -717h-201z" />
<glyph unicode="x" horiz-adv-x="968" d="M0 0l385 524l-346 465h229l107 -155q12 -17 52.5 -77t61.5 -89q7 9 46 73q9 15 32.5 53t26.5 44l102 151h228l-340 -465l385 -524h-230l-155 233q-50 78 -99 148q-73 -108 -268 -381h-217z" />
<glyph unicode="y" horiz-adv-x="978" d="M6 989h203l219 -565q42 -110 74 -209q53 170 67 209l205 565h197l-436 -1108q-40 -102 -99.5 -148t-150.5 -46q-72 0 -152 30v154q72 -27 119 -27q100 0 137 103l27 78z" />
<glyph unicode="z" horiz-adv-x="940" d="M68 0v145l520 674h-484v170h756v-100l-553 -719h590v-170h-829z" />
<glyph unicode="{" d="M254 428v158q63 17 90 59.5t27 124.5v342q0 149 71 217q39 36 99.5 49t187.5 13h39v-185q-118 -1 -157.5 -37.5t-39.5 -142.5v-289q0 -96 -24.5 -147t-87.5 -88q63 -35 87.5 -88.5t24.5 -151.5v-282q0 -113 39.5 -151t157.5 -38v-174q-16 -2 -37 -2q-133 0 -192.5 13.5 t-98.5 52.5q-37 38 -53 93.5t-16 143.5v318q0 88 -26 130.5t-91 61.5z" />
<glyph unicode="|" d="M410 -342v1708h204v-1708h-204z" />
<glyph unicode="}" d="M256 -201q117 3 157 40t40 143v286q0 98 24.5 149.5t87.5 86.5q-63 37 -87.5 90t-24.5 151v283q0 112 -39 149.5t-158 39.5v174h37q133 0 192.5 -13.5t98.5 -52.5q37 -37 53 -93t16 -145v-315q0 -88 26 -130.5t91 -61.5v-158q-63 -19 -90 -61t-27 -123v-342 q0 -153 -71 -218q-40 -37 -100.5 -50t-186.5 -13q-23 0 -39 2v182z" />
<glyph unicode="~" horiz-adv-x="1366" d="M193 1255q108 246 286 246q72 0 234 -76q86 -41 118 -52t62 -11q52 0 93.5 33t84.5 110l105 -84q-54 -124 -128 -182.5t-176 -58.5q-40 0 -80.5 14.5t-158.5 71.5q-105 51 -162 51q-51 0 -91 -34t-83 -112z" />
<glyph unicode="&#xa1;" horiz-adv-x="507" d="M152 784v205h204v-205h-204zM154 174l53 488h94l51 -488v-549h-198v549z" />
<glyph unicode="&#xa2;" horiz-adv-x="1146" d="M109 670q0 212 107 349.5t296 166.5v180h127v-174q164 -8 270 -105.5t121 -257.5h-178q-15 88 -71 141t-142 64v-727q190 24 225 238h178q-13 -172 -122 -278t-281 -117v-150h-127v154q-190 31 -296.5 167.5t-106.5 348.5zM299 674q0 -138 56 -231.5t157 -125.5v707 q-98 -31 -155.5 -124.5t-57.5 -225.5z" />
<glyph unicode="&#xa3;" horiz-adv-x="1146" d="M57 147q112 72 160.5 137.5t48.5 145.5q0 64 -35 164h-151v139h78q-78 150 -78 256q0 169 137 280t344 111q153 0 264.5 -58t171.5 -167q31 -57 44 -114t18 -150h-195q-10 121 -39 182q-32 68 -101.5 106t-160.5 38q-121 0 -201.5 -64t-80.5 -160q0 -37 11 -66.5 t75 -170.5l10 -23h282v-139h-217q15 -81 15 -100q0 -66 -34 -131.5t-120 -161.5q92 28 143 28q42 0 72.5 -8t169.5 -55q50 -16 88 -16q40 0 77 16.5t99 62.5l43 31l115 -151q-125 -80 -195.5 -108t-148.5 -28q-51 0 -87 10t-200 68q-59 21 -112 21q-50 0 -92.5 -19.5 t-102.5 -68.5z" />
<glyph unicode="&#xa4;" horiz-adv-x="1423" d="M121 1178l108 106l199 -199q90 56 150 76.5t135 20.5q73 0 131 -19.5t147 -75.5l201 197l106 -108l-196 -195q98 -140 98 -287q0 -73 -19 -131t-73 -145l195 -197l-107 -106l-195 194q-133 -98 -280 -98q-140 0 -295 98l-195 -194l-106 106l190 197q-92 134 -92 282 q0 72 21 132.5t75 148.5zM403 696q0 -127 91 -218t217 -91q128 0 218.5 91t90.5 220q0 127 -90 219.5t-215 92.5q-131 0 -221.5 -91t-90.5 -223z" />
<glyph unicode="&#xa5;" horiz-adv-x="1146" d="M8 1366h228l161 -303h373l160 303h229l-172 -303h115v-139h-195l-137 -244h236v-139h-316v-541h-194v541h-336v139h254l-144 244h-207v139h123zM473 924q9 -20 19 -40t19 -36t19 -33.5t18.5 -32.5t18.5 -33.5t19 -35.5q19 38 39.5 74.5t38.5 68.5t34 68h-225z" />
<glyph unicode="&#xa6;" d="M410 313h204v-655h-204v655zM410 670v696h204v-696h-204z" />
<glyph unicode="&#xa7;" horiz-adv-x="1234" d="M141 602q0 174 197 305q-70 93 -70 189q0 129 102 213t259 84t255 -88t111 -242h-194q-21 166 -180 166q-71 0 -116.5 -34.5t-45.5 -88.5q0 -96 131 -180l262 -166q140 -88 191 -156t51 -168q0 -89 -44.5 -158t-144.5 -137q46 -56 65 -102.5t19 -106.5q0 -135 -101 -218 t-267 -83q-352 0 -390 346h191q30 -182 205 -182q75 0 123.5 41t48.5 105q0 93 -137 174l-267 155q-134 78 -194 156.5t-60 175.5zM332 621q0 -52 33 -94t112 -87l211 -123q57 -33 94 -59q121 69 121 162q0 46 -29.5 82.5t-113.5 89.5l-211 133q-50 33 -98 72 q-63 -44 -91 -85.5t-28 -90.5z" />
<glyph unicode="&#xa8;" d="M268 1075v215h174v-215h-174zM582 1075v215h174v-215h-174z" />
<glyph unicode="&#xa9;" horiz-adv-x="1595" d="M92 682q0 146 56 277t151.5 226t228.5 150.5t281 55.5q187 0 347.5 -96t254.5 -259.5t94 -353.5q0 -143 -55.5 -274t-150 -226t-225 -151t-273.5 -56q-192 0 -355.5 95t-258.5 258t-95 354zM195 682q0 -165 81 -306t220.5 -223.5t302.5 -82.5q123 0 235 48.5t192.5 130.5 t128.5 195t48 238q0 165 -80.5 306.5t-218 224.5t-297.5 83q-126 0 -239.5 -48t-195 -129.5t-129.5 -195.5t-48 -241zM414 686q0 185 110 301.5t285 116.5q141 0 241.5 -81t110.5 -204h-100q-19 81 -86 127.5t-166 46.5q-121 0 -194.5 -84.5t-73.5 -222.5 q0 -140 72.5 -223.5t193.5 -83.5q110 0 180.5 60.5t85.5 166.5h101q-12 -152 -113.5 -245t-255.5 -93q-175 0 -283 115.5t-108 302.5z" />
<glyph unicode="&#xaa;" horiz-adv-x="698" d="M63 711q0 147 193 182l137 25q51 9 66.5 19.5t15.5 33.5q0 40 -34 63t-93 23q-91 0 -117 -47q-10 -17 -12 -74h-125q6 116 67.5 169.5t188.5 53.5q119 0 183.5 -51t64.5 -145v-275q0 -30 5 -39.5t20 -9.5q14 0 41 8v-100q-44 -8 -86 -8q-41 0 -63.5 15.5t-35.5 53.5 q-84 -78 -207 -78q-92 0 -150.5 50.5t-58.5 130.5zM199 715q0 -37 29.5 -59.5t76.5 -22.5q71 0 121.5 42.5t50.5 102.5v64q-21 -9 -63 -19l-119 -26q-51 -10 -73.5 -30t-22.5 -52z" />
<glyph unicode="&#xab;" horiz-adv-x="802" d="M82 461v205l276 229v-199l-176 -133l176 -133v-199zM422 461v205l276 229v-199l-176 -133l176 -133v-199z" />
<glyph unicode="&#xac;" d="M68 397v178h886v-575h-198v397h-688z" />
<glyph unicode="&#xad;" horiz-adv-x="606" d="M0 475v170h606v-170h-606z" />
<glyph unicode="&#xae;" horiz-adv-x="1595" d="M92 682q0 146 56 277t151.5 226t228.5 150.5t281 55.5q187 0 347.5 -96t254.5 -259.5t94 -353.5q0 -143 -56 -274t-150.5 -226t-225.5 -151t-274 -56q-191 0 -354 95t-258 258t-95 354zM195 682q0 -165 81 -306t220.5 -223.5t302.5 -82.5q123 0 235 48.5t192.5 130.5 t128.5 195t48 238q0 165 -80.5 306.5t-218 224.5t-297.5 83q-126 0 -239.5 -48t-195 -129.5t-129.5 -195.5t-48 -241zM498 281v800h338q138 0 211 -57t73 -166q0 -137 -141 -194q76 -28 101 -78t30 -178q2 -90 20 -127h-122q-9 15 -12.5 43.5t-8.5 107.5q-5 73 -16.5 107 t-38.5 53q-45 31 -141 31h-166v-342h-127zM625 702h174q196 0 196 150q0 74 -44.5 109.5t-137.5 35.5h-188v-295z" />
<glyph unicode="&#xaf;" d="M240 1126v129h546v-129h-546z" />
<glyph unicode="&#xb0;" d="M213 1065q0 125 87.5 212t213.5 87q123 0 210 -87.5t87 -213.5q0 -121 -87.5 -209t-209.5 -88q-125 0 -213 87.5t-88 211.5zM303 1065q0 -86 61.5 -148.5t147.5 -62.5q85 0 147 62t62 145q0 90 -61.5 152.5t-149.5 62.5q-85 0 -146 -62.5t-61 -148.5z" />
<glyph unicode="&#xb1;" d="M39 94v105h946v-105h-946zM39 676v104h418v400h106v-400h420v-104h-420v-389h-106v389h-418z" />
<glyph unicode="&#xb2;" horiz-adv-x="751" d="M74 547q-1 117 64 202t233 185q93 55 125 93.5t32 94.5q0 60 -41.5 99t-107.5 39q-51 0 -88.5 -23t-52.5 -63q-11 -32 -11 -109h-127q-2 16 -2 39q0 129 74 199.5t209 70.5q126 0 203.5 -69t77.5 -181q0 -106 -78 -184q-26 -25 -54.5 -44.5t-123.5 -76.5 q-61 -36 -110 -81t-63 -76h418v-115h-577z" />
<glyph unicode="&#xb3;" horiz-adv-x="751" d="M51 825h129q3 -83 51.5 -131.5t128.5 -48.5q69 0 114.5 38t45.5 95q0 62 -52.5 102t-133.5 40q-19 0 -35 -2v104h29q75 0 121.5 34t46.5 89q0 49 -38.5 82t-97.5 33q-67 0 -107 -40t-40 -108v-14h-127q0 128 75 202t204 74q114 0 189 -64t75 -161q0 -115 -115 -174 q139 -65 139 -199q0 -106 -82.5 -176t-208.5 -70q-138 0 -223 80.5t-88 214.5z" />
<glyph unicode="&#xb4;" d="M420 1079l90 226h231l-172 -226h-149z" />
<glyph unicode="&#xb5;" horiz-adv-x="1179" d="M174 -385v1382h174v-589q0 -140 56 -211.5t184 -71.5q131 0 187 70t56 213v589h175v-759q0 -113 63 -113q28 0 55 6v-137q-24 -16 -106 -19q-78 3 -116 36t-56 100q-93 -136 -254 -136q-140 0 -240 127h-4v-487h-174z" />
<glyph unicode="&#xb6;" horiz-adv-x="1173" d="M72 1001q0 101 46 184.5t126 127.5q97 53 278 53h494v-84h-117v-1513h-106v1513h-207v-1513h-107v876h-30q-166 0 -271.5 99.5t-105.5 256.5z" />
<glyph unicode="&#xb7;" horiz-adv-x="487" d="M137 457v205h211v-205h-211z" />
<glyph unicode="&#xb8;" d="M311 -348l29 63q93 -43 172 -43q52 0 85.5 25t33.5 63q0 37 -27 58.5t-72 21.5q-36 0 -92 -20l-41 33l90 129l76 -2l-61 -89q54 11 82 11q71 0 115 -36.5t44 -96.5q0 -72 -60.5 -118t-156.5 -46q-102 0 -217 47z" />
<glyph unicode="&#xb9;" horiz-adv-x="751" d="M145 1118v92q87 -3 148 37.5t74 110.5h100v-811h-127v571h-195z" />
<glyph unicode="&#xba;" horiz-adv-x="735" d="M63 846q0 140 84.5 227.5t219.5 87.5q137 0 220 -87t83 -232q0 -138 -84.5 -225t-218.5 -87q-135 0 -219.5 87.5t-84.5 228.5zM199 846q0 -98 44.5 -153.5t123.5 -55.5t123.5 54t44.5 151q0 103 -43 158t-125 55q-80 0 -124 -54.5t-44 -154.5z" />
<glyph unicode="&#xbb;" horiz-adv-x="802" d="M104 231v199l177 133l-177 133v199l277 -229v-205zM444 231v199l177 133l-177 133v199l277 -229v-205z" />
<glyph unicode="&#xbc;" horiz-adv-x="1765" d="M145 1118v92q87 -3 148 37.5t74 110.5h100v-811h-127v571h-195zM573 0l512 1366h107l-512 -1366h-107zM1087 182v119l388 510h108v-524h105v-105h-105v-182h-127v182h-369zM1217 287h239v301l2 28q-34 -50 -74 -105t-90 -121t-77 -103z" />
<glyph unicode="&#xbd;" horiz-adv-x="1765" d="M145 1118v92q87 -3 148 37.5t74 110.5h100v-811h-127v571h-195zM573 0l512 1366h107l-512 -1366h-107zM1090 0v14q0 109 66.5 192t229.5 181q95 57 126.5 94.5t31.5 93.5q0 60 -41.5 99t-107.5 39q-51 0 -89 -23t-53 -63q-10 -29 -10 -109h-127q-2 16 -2 39 q0 129 74.5 199.5t208.5 70.5q126 0 203 -68.5t77 -180.5q0 -107 -78 -185q-26 -25 -54.5 -44.5t-123.5 -76.5q-60 -37 -109.5 -81.5t-62.5 -75.5h418v-115h-577z" />
<glyph unicode="&#xbe;" horiz-adv-x="1765" d="M51 825h129q3 -83 51.5 -131.5t128.5 -48.5q69 0 114.5 38t45.5 95q0 62 -52.5 102t-133.5 40q-19 0 -35 -2v104h29q75 0 121.5 34t46.5 89q0 49 -38.5 82t-97.5 33q-67 0 -107 -40t-40 -108v-14h-127q0 128 75 202t204 74q114 0 189 -64t75 -161q0 -115 -115 -174 q139 -65 139 -199q0 -106 -82.5 -176t-208.5 -70q-138 0 -223 80.5t-88 214.5zM573 0l512 1366h107l-512 -1366h-107zM1087 182v119l388 510h108v-524h105v-105h-105v-182h-127v182h-369zM1217 287h239v301l2 28q-34 -50 -74 -105t-90 -121t-77 -103z" />
<glyph unicode="&#xbf;" horiz-adv-x="1007" d="M61 -29q0 121 74 213q38 46 174 174q67 61 89 122t22 182h166v-50q0 -134 -60 -239q-38 -70 -164 -193q-67 -64 -91.5 -108t-24.5 -101q0 -94 68.5 -154.5t174.5 -60.5q265 0 271 324h174q-6 -231 -124 -356t-329 -125q-187 0 -303.5 103t-116.5 269zM397 784v205h211 v-205h-211z" />
<glyph unicode="&#xc0;" horiz-adv-x="1255" d="M20 0l502 1366h209l504 -1366h-213l-141 410h-514l-140 -410h-207zM377 1675h231l90 -225h-149zM424 573h401l-200 582z" />
<glyph unicode="&#xc1;" horiz-adv-x="1255" d="M20 0l502 1366h209l504 -1366h-213l-141 410h-514l-140 -410h-207zM424 573h401l-200 582zM561 1450l90 225h232l-172 -225h-150z" />
<glyph unicode="&#xc2;" horiz-adv-x="1255" d="M20 0l502 1366h209l504 -1366h-213l-141 410h-514l-140 -410h-207zM348 1448l191 229h196l185 -229h-181l-100 139l-100 -139h-191zM424 573h401l-200 582z" />
<glyph unicode="&#xc3;" horiz-adv-x="1255" d="M20 0l502 1366h209l504 -1366h-213l-141 410h-514l-140 -410h-207zM354 1475q22 95 67.5 139.5t121.5 44.5q39 0 82 -14l100 -35q21 -6 31 -6q40 0 63 55h137q-43 -193 -194 -193q-32 0 -72 15l-94 32q-24 9 -39 9q-42 0 -65 -47h-138zM424 573h401l-200 582z" />
<glyph unicode="&#xc4;" horiz-adv-x="1255" d="M20 0l502 1366h209l504 -1366h-213l-141 410h-514l-140 -410h-207zM389 1458v215h178v-215h-178zM424 573h401l-200 582zM702 1458v215h179v-215h-179z" />
<glyph unicode="&#xc5;" horiz-adv-x="1255" d="M20 0l502 1366h209l504 -1366h-213l-141 410h-514l-140 -410h-207zM424 573h401l-200 582zM453 1622q0 74 53.5 127t126.5 53q77 0 129.5 -53t52.5 -131q0 -72 -53.5 -125t-126.5 -53q-75 0 -128.5 53.5t-53.5 128.5zM537 1622q0 -40 29 -69t69 -29q39 0 67.5 28.5 t28.5 67.5q0 41 -28 69.5t-68 28.5t-69 -29t-29 -67z" />
<glyph unicode="&#xc6;" horiz-adv-x="1863" d="M20 0l478 1366h1255v-170h-764v-412h699v-159h-699v-455h791v-170h-985v410h-461l-133 -410h-181zM387 573h408v623h-203z" />
<glyph unicode="&#xc7;" horiz-adv-x="1394" d="M104 688q0 206 81 367.5t227 251.5t331 90q218 0 365.5 -117t191.5 -324l-190 -18q-31 135 -128.5 212t-238.5 77q-196 0 -315 -146.5t-119 -388.5q0 -248 118 -400.5t310 -152.5q159 0 263.5 102t127.5 279h197q-12 -101 -38.5 -173.5t-78.5 -143.5q-159 -220 -444 -232 l-57 -84q62 11 84 11q76 0 123 -39t47 -101q0 -75 -63 -122.5t-163 -47.5q-111 0 -231 50l31 65q94 -43 180 -43q54 0 88.5 25t34.5 65q0 37 -29 58.5t-76 21.5q-36 0 -96 -18l-41 34l86 125q-270 18 -428 232q-150 204 -150 485z" />
<glyph unicode="&#xc8;" horiz-adv-x="1230" d="M162 0v1366h958v-170h-764v-412h699v-159h-699v-455h791v-170h-985zM381 1675h231l90 -225h-149z" />
<glyph unicode="&#xc9;" horiz-adv-x="1230" d="M162 0v1366h958v-170h-764v-412h699v-159h-699v-455h791v-170h-985zM592 1450l90 225h231l-172 -225h-149z" />
<glyph unicode="&#xca;" horiz-adv-x="1230" d="M162 0v1366h958v-170h-764v-412h699v-159h-699v-455h791v-170h-985zM371 1448l190 229h197l184 -229h-180l-100 139l-101 -139h-190z" />
<glyph unicode="&#xcb;" horiz-adv-x="1230" d="M162 0v1366h958v-170h-764v-412h699v-159h-699v-455h791v-170h-985zM412 1458v215h178v-215h-178zM725 1458v215h178v-215h-178z" />
<glyph unicode="&#xcc;" horiz-adv-x="516" d="M16 1675h232l90 -225h-150zM162 0v1366h194v-1366h-194z" />
<glyph unicode="&#xcd;" horiz-adv-x="516" d="M162 0v1366h194v-1366h-194zM195 1450l90 225h231l-172 -225h-149z" />
<glyph unicode="&#xce;" horiz-adv-x="516" d="M-20 1448l190 229h197l184 -229h-180l-101 139l-100 -139h-190zM162 0v1366h194v-1366h-194z" />
<glyph unicode="&#xcf;" horiz-adv-x="516" d="M43 1458v215h160v-215h-160zM160 0v1366h194v-1366h-194zM326 1458v215h159v-215h-159z" />
<glyph unicode="&#xd0;" horiz-adv-x="1361" d="M66 625v159h94v582h491q332 0 484 -219q122 -177 122 -451q0 -323 -165.5 -509.5t-452.5 -186.5h-479v625h-94zM354 170h244q233 0 347 128.5t114 391.5q0 228 -88 359q-52 76 -138.5 111.5t-220.5 35.5h-258v-412h383v-159h-383v-455z" />
<glyph unicode="&#xd1;" horiz-adv-x="1396" d="M162 0v1366h198l537 -831q87 -133 162 -283q-6 114 -6 256v858h184v-1366h-197l-559 862q-74 112 -141 236q6 -92 6 -258v-840h-184zM453 1475q22 96 67 140t121 44q39 0 82 -14l100 -35q21 -6 31 -6q41 0 64 55h137q-43 -193 -195 -193q-32 0 -72 15l-94 32q-24 9 -39 9 q-42 0 -65 -47h-137z" />
<glyph unicode="&#xd2;" horiz-adv-x="1529" d="M104 684q0 205 84 368t234.5 254t339.5 91q294 0 477.5 -201t183.5 -522q0 -201 -85 -362.5t-235.5 -252t-338.5 -90.5q-190 0 -341 91t-235 254.5t-84 369.5zM303 684q0 -243 127.5 -394t333.5 -151q203 0 332 150.5t129 386.5q0 249 -127 400t-334 151 q-205 0 -333 -150.5t-128 -392.5zM522 1675h232l90 -225h-150z" />
<glyph unicode="&#xd3;" horiz-adv-x="1529" d="M104 684q0 205 84 368t234.5 254t339.5 91q294 0 477.5 -201t183.5 -522q0 -201 -85 -362.5t-235.5 -252t-338.5 -90.5q-190 0 -341 91t-235 254.5t-84 369.5zM303 684q0 -243 127.5 -394t333.5 -151q203 0 332 150.5t129 386.5q0 249 -127 400t-334 151 q-205 0 -333 -150.5t-128 -392.5zM692 1450l90 225h232l-172 -225h-150z" />
<glyph unicode="&#xd4;" horiz-adv-x="1529" d="M104 684q0 205 84 368t234.5 254t339.5 91q294 0 477.5 -201t183.5 -522q0 -201 -85 -362.5t-235.5 -252t-338.5 -90.5q-190 0 -341 91t-235 254.5t-84 369.5zM303 684q0 -243 127.5 -394t333.5 -151q203 0 332 150.5t129 386.5q0 249 -127 400t-334 151 q-205 0 -333 -150.5t-128 -392.5zM485 1448l191 229h196l185 -229h-180l-101 139l-100 -139h-191z" />
<glyph unicode="&#xd5;" horiz-adv-x="1529" d="M104 684q0 205 84 368t234.5 254t339.5 91q294 0 477.5 -201t183.5 -522q0 -201 -85 -362.5t-235.5 -252t-338.5 -90.5q-190 0 -341 91t-235 254.5t-84 369.5zM303 684q0 -243 127.5 -394t333.5 -151q203 0 332 150.5t129 386.5q0 249 -127 400t-334 151 q-205 0 -333 -150.5t-128 -392.5zM498 1475q22 96 67 140t121 44q39 0 82 -14l100 -35q21 -6 31 -6q41 0 64 55h137q-43 -193 -195 -193q-31 0 -71 15l-95 32q-24 9 -39 9q-42 0 -65 -47h-137z" />
<glyph unicode="&#xd6;" horiz-adv-x="1529" d="M104 684q0 205 84 368t234.5 254t339.5 91q294 0 477.5 -201t183.5 -522q0 -201 -85 -362.5t-235.5 -252t-338.5 -90.5q-190 0 -341 91t-235 254.5t-84 369.5zM303 684q0 -243 127.5 -394t333.5 -151q203 0 332 150.5t129 386.5q0 249 -127 400t-334 151 q-205 0 -333 -150.5t-128 -392.5zM524 1458v215h178v-215h-178zM838 1458v215h178v-215h-178z" />
<glyph unicode="&#xd7;" d="M117 389l321 320l-319 319l74 72l317 -318l319 320l76 -74l-321 -321l321 -318l-74 -74l-319 320l-319 -322z" />
<glyph unicode="&#xd8;" horiz-adv-x="1529" d="M104 684q0 205 84 368t235 254t341 91q246 0 426 -154l151 170l74 -67l-155 -175q163 -198 163 -489q0 -205 -84 -368t-234.5 -254t-340.5 -91q-252 0 -434 162l-144 -162l-73 66l149 168q-76 92 -117 216.5t-41 264.5zM303 684q0 -197 86 -338l678 762 q-119 119 -303 119q-204 0 -332.5 -151t-128.5 -392zM453 268q126 -129 311 -129q204 0 332.5 151t128.5 392q0 205 -92 348z" />
<glyph unicode="&#xd9;" horiz-adv-x="1392" d="M162 473v893h194v-920q0 -145 90.5 -226t251.5 -81q160 0 250 81t90 226v920h195v-893q0 -126 -29 -211.5t-92 -148.5q-147 -144 -416 -144q-266 0 -413 144q-63 63 -92 148.5t-29 211.5zM496 1675h231l90 -225h-149z" />
<glyph unicode="&#xda;" horiz-adv-x="1392" d="M162 473v893h194v-920q0 -145 90.5 -226t251.5 -81q160 0 250 81t90 226v920h195v-893q0 -126 -29 -211.5t-92 -148.5q-147 -144 -416 -144q-266 0 -413 144q-63 63 -92 148.5t-29 211.5zM651 1450l90 225h232l-172 -225h-150z" />
<glyph unicode="&#xdb;" horiz-adv-x="1392" d="M162 473v893h194v-920q0 -145 90.5 -226t251.5 -81q160 0 250 81t90 226v920h195v-893q0 -126 -29 -211.5t-92 -148.5q-147 -144 -416 -144q-266 0 -413 144q-63 63 -92 148.5t-29 211.5zM426 1448l190 229h197l184 -229h-180l-100 139l-101 -139h-190z" />
<glyph unicode="&#xdc;" horiz-adv-x="1392" d="M162 473v893h194v-920q0 -145 90.5 -226t251.5 -81q160 0 250 81t90 226v920h195v-893q0 -126 -29 -211.5t-92 -148.5q-147 -144 -416 -144q-266 0 -413 144q-63 63 -92 148.5t-29 211.5zM479 1458v215h178v-215h-178zM793 1458v215h178v-215h-178z" />
<glyph unicode="&#xdd;" horiz-adv-x="1198" d="M-4 1366h229l269 -451q47 -82 108 -202q54 108 109 202l262 451h229l-495 -825v-541h-195v541zM553 1450l90 225h231l-172 -225h-149z" />
<glyph unicode="&#xde;" horiz-adv-x="1214" d="M162 0v1366h194v-240h285q137 0 223.5 -22t153.5 -76q135 -110 135 -311q0 -185 -127 -297q-66 -58 -148.5 -81.5t-222.5 -23.5h-299v-315h-194zM356 475h314q149 0 219 64q76 67 76 176q0 111 -76 178q-69 63 -219 63h-314v-481z" />
<glyph unicode="&#xdf;" horiz-adv-x="1044" d="M137 0v932q0 128 14.5 197.5t51.5 123.5q44 66 126 102t187 36q173 0 278 -92t105 -244q0 -187 -174 -273q112 -46 171.5 -138t59.5 -220q0 -192 -117 -315t-300 -123q-49 0 -115 14v145q46 -10 86 -10q118 0 187 78.5t69 212.5q0 86 -36.5 150.5t-102.5 95.5 q-61 26 -158 26q-10 0 -37 -2v146q29 -2 53 -2q107 0 170.5 57t63.5 154q0 86 -55 138t-146 52q-92 0 -142 -52.5t-50 -150.5v-1038h-189z" />
<glyph unicode="&#xe0;" horiz-adv-x="1069" d="M88 266q0 240 299 299l219 43q89 17 116.5 37t27.5 66q0 72 -59 113.5t-159 41.5q-72 0 -125 -22t-73 -62q-18 -35 -23 -120h-176q11 164 80 241q47 54 132 83.5t190 29.5q183 0 284 -84t101 -238v-465q0 -58 10.5 -76t42.5 -18q20 0 49 10v-145q-75 -14 -123 -14 q-66 0 -101.5 31.5t-45.5 101.5q-146 -146 -342 -146q-145 0 -234.5 81t-89.5 212zM279 274q0 -68 50.5 -109.5t133.5 -41.5q120 0 205.5 76t85.5 182v127q-54 -22 -117 -37l-193 -45q-86 -20 -125.5 -56.5t-39.5 -95.5zM291 1305h231l90 -226h-149z" />
<glyph unicode="&#xe1;" horiz-adv-x="1069" d="M88 266q0 240 299 299l219 43q89 17 116.5 37t27.5 66q0 72 -59 113.5t-159 41.5q-72 0 -125 -22t-73 -62q-18 -35 -23 -120h-176q11 164 80 241q47 54 132 83.5t190 29.5q183 0 284 -84t101 -238v-465q0 -58 10.5 -76t42.5 -18q20 0 49 10v-145q-75 -14 -123 -14 q-66 0 -101.5 31.5t-45.5 101.5q-146 -146 -342 -146q-145 0 -234.5 81t-89.5 212zM279 274q0 -68 50.5 -109.5t133.5 -41.5q120 0 205.5 76t85.5 182v127q-54 -22 -117 -37l-193 -45q-86 -20 -125.5 -56.5t-39.5 -95.5zM469 1079l90 226h232l-173 -226h-149z" />
<glyph unicode="&#xe2;" horiz-adv-x="1069" d="M88 266q0 240 299 299l219 43q89 17 116.5 37t27.5 66q0 72 -59 113.5t-159 41.5q-72 0 -125 -22t-73 -62q-18 -35 -23 -120h-176q11 164 80 241q47 54 132 83.5t190 29.5q183 0 284 -84t101 -238v-465q0 -58 10.5 -76t42.5 -18q20 0 49 10v-145q-75 -14 -123 -14 q-66 0 -101.5 31.5t-45.5 101.5q-146 -146 -342 -146q-145 0 -234.5 81t-89.5 212zM276 1075l183 230h198l191 -230h-191l-102 139l-98 -139h-181zM279 274q0 -68 50.5 -109.5t133.5 -41.5q120 0 205.5 76t85.5 182v127q-54 -22 -117 -37l-193 -45q-86 -20 -125.5 -56.5 t-39.5 -95.5z" />
<glyph unicode="&#xe3;" horiz-adv-x="1069" d="M88 266q0 240 299 299l219 43q89 17 116.5 37t27.5 66q0 72 -59 113.5t-159 41.5q-72 0 -125 -22t-73 -62q-18 -35 -23 -120h-176q11 164 80 241q47 54 132 83.5t190 29.5q183 0 284 -84t101 -238v-465q0 -58 10.5 -76t42.5 -18q20 0 49 10v-145q-75 -14 -123 -14 q-66 0 -101.5 31.5t-45.5 101.5q-146 -146 -342 -146q-145 0 -234.5 81t-89.5 212zM279 274q0 -68 50.5 -109.5t133.5 -41.5q120 0 205.5 76t85.5 182v127q-54 -22 -117 -37l-193 -45q-86 -20 -125.5 -56.5t-39.5 -95.5zM281 1104q20 94 65.5 138t122.5 44q39 0 82 -14 l100 -33q24 -8 31 -8q40 0 63 55h138q-43 -190 -195 -190q-25 0 -72 14l-94 31q-33 10 -39 10q-42 0 -65 -47h-137z" />
<glyph unicode="&#xe4;" horiz-adv-x="1069" d="M88 266q0 240 299 299l219 43q89 17 116.5 37t27.5 66q0 72 -59 113.5t-159 41.5q-72 0 -125 -22t-73 -62q-18 -35 -23 -120h-176q11 164 80 241q47 54 132 83.5t190 29.5q183 0 284 -84t101 -238v-465q0 -58 10.5 -76t42.5 -18q20 0 49 10v-145q-75 -14 -123 -14 q-66 0 -101.5 31.5t-45.5 101.5q-146 -146 -342 -146q-145 0 -234.5 81t-89.5 212zM279 274q0 -68 50.5 -109.5t133.5 -41.5q120 0 205.5 76t85.5 182v127q-54 -22 -117 -37l-193 -45q-86 -20 -125.5 -56.5t-39.5 -95.5zM311 1075v215h174v-215h-174zM625 1075v215h174v-215 h-174z" />
<glyph unicode="&#xe5;" horiz-adv-x="1069" d="M88 266q0 240 299 299l219 43q89 17 116.5 37t27.5 66q0 72 -59 113.5t-159 41.5q-72 0 -125 -22t-73 -62q-18 -35 -23 -120h-176q11 164 80 241q47 54 132 83.5t190 29.5q183 0 284 -84t101 -238v-465q0 -58 10.5 -76t42.5 -18q20 0 49 10v-145q-75 -14 -123 -14 q-66 0 -101.5 31.5t-45.5 101.5q-146 -146 -342 -146q-145 0 -234.5 81t-89.5 212zM279 274q0 -68 50.5 -109.5t133.5 -41.5q120 0 205.5 76t85.5 182v127q-54 -22 -117 -37l-193 -45q-86 -20 -125.5 -56.5t-39.5 -95.5zM367 1262q0 74 53.5 127t126.5 53q77 0 129.5 -53.5 t52.5 -131.5q0 -72 -53.5 -125t-126.5 -53q-75 0 -128.5 54t-53.5 129zM451 1262q0 -40 29 -69.5t69 -29.5q39 0 67.5 28.5t28.5 68.5q0 41 -28 69.5t-68 28.5t-69 -29t-29 -67z" />
<glyph unicode="&#xe6;" horiz-adv-x="1736" d="M88 266q0 240 299 299l219 43q89 17 116.5 37t27.5 66q0 72 -59 113.5t-159 41.5q-72 0 -125 -22t-73 -62q-18 -35 -23 -120h-176q11 164 80 241q47 54 132 83.5t190 29.5q233 0 335 -142q139 142 332 142q148 0 253.5 -76.5t152.5 -218.5q36 -107 39 -272h-721 q10 -152 85 -235t201 -83q176 0 242 172h178q-35 -155 -147.5 -242.5t-276.5 -87.5q-120 0 -218.5 52.5t-164.5 150.5q-86 -104 -182 -153.5t-213 -49.5q-152 0 -248 82t-96 211zM279 276q0 -66 50.5 -105.5t133.5 -39.5q120 0 205.5 73.5t85.5 176.5v127q-73 -28 -117 -37 l-193 -45q-86 -20 -125.5 -56.5t-39.5 -93.5zM930 586h522q-6 134 -70 207t-178 73t-190.5 -78t-83.5 -202z" />
<glyph unicode="&#xe7;" horiz-adv-x="1083" d="M88 496q0 236 135 378t359 142q181 0 293.5 -95.5t132.5 -267.5h-179q-44 205 -249 205q-135 0 -218 -99t-83 -261q0 -166 82.5 -266.5t218.5 -100.5q222 0 262 240h178q-20 -183 -129.5 -287t-290.5 -111l-57 -82q54 11 82 11q71 0 115 -36.5t44 -96.5q0 -72 -60.5 -118 t-156.5 -46q-102 0 -217 47l29 63q93 -43 172 -43q52 0 85.5 25t33.5 63q0 37 -27 58.5t-72 21.5q-36 0 -92 -20l-41 33l86 122q-200 17 -318 158t-118 363z" />
<glyph unicode="&#xe8;" horiz-adv-x="1083" d="M88 496q0 230 129.5 375t335.5 145q147 0 251 -76t154 -219q36 -107 39 -272h-721q11 -152 85.5 -235t201.5 -83q174 0 240 172h180q-35 -155 -147.5 -242.5t-276.5 -87.5q-209 0 -340 146t-131 377zM279 586h522q-6 135 -70.5 207.5t-177.5 72.5q-115 0 -190.5 -77.5 t-83.5 -202.5zM307 1305h232l90 -226h-150z" />
<glyph unicode="&#xe9;" horiz-adv-x="1083" d="M88 496q0 230 129.5 375t335.5 145q147 0 251 -76t154 -219q36 -107 39 -272h-721q11 -152 85.5 -235t201.5 -83q174 0 240 172h180q-35 -155 -147.5 -242.5t-276.5 -87.5q-209 0 -340 146t-131 377zM279 586h522q-6 135 -70.5 207.5t-177.5 72.5q-115 0 -190.5 -77.5 t-83.5 -202.5zM483 1079l90 226h232l-172 -226h-150z" />
<glyph unicode="&#xea;" horiz-adv-x="1083" d="M88 496q0 230 129.5 375t335.5 145q147 0 251 -76t154 -219q36 -107 39 -272h-721q11 -152 85.5 -235t201.5 -83q174 0 240 172h180q-35 -155 -147.5 -242.5t-276.5 -87.5q-209 0 -340 146t-131 377zM279 586h522q-6 135 -70.5 207.5t-177.5 72.5q-115 0 -190.5 -77.5 t-83.5 -202.5zM279 1075l182 230h198l191 -230h-191l-102 139l-98 -139h-180z" />
<glyph unicode="&#xeb;" horiz-adv-x="1083" d="M88 496q0 230 129.5 375t335.5 145q147 0 251 -76t154 -219q36 -107 39 -272h-721q11 -152 85.5 -235t201.5 -83q174 0 240 172h180q-35 -155 -147.5 -242.5t-276.5 -87.5q-209 0 -340 146t-131 377zM279 586h522q-6 135 -70.5 207.5t-177.5 72.5q-115 0 -190.5 -77.5 t-83.5 -202.5zM311 1075v215h174v-215h-174zM625 1075v215h174v-215h-174z" />
<glyph unicode="&#xec;" horiz-adv-x="462" d="M-10 1305h231l90 -226h-149zM139 0v989h189v-989h-189z" />
<glyph unicode="&#xed;" horiz-adv-x="462" d="M137 0v989h189v-989h-189zM166 1079l90 226h231l-172 -226h-149z" />
<glyph unicode="&#xee;" horiz-adv-x="462" d="M-41 1075l182 230h199l190 -230h-190l-102 139l-99 -139h-180zM137 0v989h189v-989h-189z" />
<glyph unicode="&#xef;" horiz-adv-x="462" d="M18 1075v215h158v-215h-158zM137 0v989h189v-989h-189zM303 1075v215h156v-215h-156z" />
<glyph unicode="&#xf0;" horiz-adv-x="1126" d="M88 504q0 229 137 375q134 137 312 137q116 0 211 -66q-52 105 -203 224l-109 -127l-104 83l100 121l-96 52l70 122q70 -30 120 -59l113 133l111 -88l-107 -123q192 -145 294.5 -346t102.5 -434q0 -246 -128.5 -390.5t-346.5 -144.5q-217 0 -347 145t-130 386zM279 496 q0 -173 75 -269t211 -96q134 0 209.5 95t75.5 263q0 178 -74.5 273.5t-212.5 95.5q-135 0 -209.5 -95t-74.5 -267z" />
<glyph unicode="&#xf1;" horiz-adv-x="1103" d="M137 0v989h180v-112q74 77 143.5 108t170.5 31q182 0 268 -109q35 -46 50.5 -102.5t15.5 -142.5v-662h-189v647q0 201 -190 201q-121 0 -190.5 -66t-69.5 -182v-600h-189zM297 1104q20 94 65.5 138t122.5 44q39 0 82 -14l101 -33q24 -8 30 -8q41 0 64 55h137 q-43 -190 -194 -190q-25 0 -72 14l-94 31q-33 10 -39 10q-43 0 -66 -47h-137z" />
<glyph unicode="&#xf2;" horiz-adv-x="1126" d="M88 496q0 232 131.5 376t343.5 144q217 0 347 -144.5t130 -384.5q0 -228 -132.5 -371t-344.5 -143t-343.5 145t-131.5 378zM279 496q0 -173 75 -269t211 -96q134 0 209.5 95t75.5 263q0 177 -74.5 273t-212.5 96q-135 0 -209.5 -95t-74.5 -267zM322 1305h231l90 -226 h-149z" />
<glyph unicode="&#xf3;" horiz-adv-x="1126" d="M88 496q0 232 131.5 376t343.5 144q217 0 347 -144.5t130 -384.5q0 -228 -132.5 -371t-344.5 -143t-343.5 145t-131.5 378zM279 496q0 -173 75 -269t211 -96q134 0 209.5 95t75.5 263q0 177 -74.5 273t-212.5 96q-135 0 -209.5 -95t-74.5 -267zM500 1079l90 226h231 l-172 -226h-149z" />
<glyph unicode="&#xf4;" horiz-adv-x="1126" d="M88 496q0 232 131.5 376t343.5 144q217 0 347 -144.5t130 -384.5q0 -228 -132.5 -371t-344.5 -143t-343.5 145t-131.5 378zM279 496q0 -173 75 -269t211 -96q134 0 209.5 95t75.5 263q0 177 -74.5 273t-212.5 96q-135 0 -209.5 -95t-74.5 -267zM293 1075l182 230h199 l190 -230h-190l-103 139l-98 -139h-180z" />
<glyph unicode="&#xf5;" horiz-adv-x="1126" d="M88 496q0 232 131.5 376t343.5 144q217 0 347 -144.5t130 -384.5q0 -228 -132.5 -371t-344.5 -143t-343.5 145t-131.5 378zM279 496q0 -173 75 -269t211 -96q134 0 209.5 95t75.5 263q0 177 -74.5 273t-212.5 96q-135 0 -209.5 -95t-74.5 -267zM297 1104q20 94 65.5 138 t122.5 44q39 0 82 -14l101 -33q24 -8 30 -8q41 0 64 55h137q-43 -190 -194 -190q-25 0 -72 14l-94 31q-33 10 -39 10q-43 0 -66 -47h-137z" />
<glyph unicode="&#xf6;" horiz-adv-x="1126" d="M88 496q0 232 131.5 376t343.5 144q217 0 347 -144.5t130 -384.5q0 -228 -132.5 -371t-344.5 -143t-343.5 145t-131.5 378zM279 496q0 -173 75 -269t211 -96q134 0 209.5 95t75.5 263q0 177 -74.5 273t-212.5 96q-135 0 -209.5 -95t-74.5 -267zM328 1075v215h174v-215 h-174zM641 1075v215h174v-215h-174z" />
<glyph unicode="&#xf7;" d="M39 655v105h946v-105h-946zM422 336q0 37 27 63.5t65 26.5q35 0 61.5 -26.5t26.5 -63.5t-26.5 -63.5t-63.5 -26.5t-63.5 26.5t-26.5 63.5zM422 1077q0 37 27 63.5t65 26.5q35 0 61.5 -26.5t26.5 -63.5t-26.5 -63.5t-63.5 -26.5t-63.5 26.5t-26.5 63.5z" />
<glyph unicode="&#xf8;" horiz-adv-x="1126" d="M88 496q0 232 132 376t345 144q174 0 305 -107l97 115l67 -57l-104 -119q110 -143 110 -352q0 -233 -131.5 -378t-343.5 -145q-174 0 -299 101l-104 -123l-68 57l111 127q-117 138 -117 361zM279 496q0 -141 45 -224l436 510q-79 76 -197 76q-135 0 -209.5 -95 t-74.5 -267zM377 201q76 -70 188 -70q135 0 210 95.5t75 267.5q0 133 -39 213z" />
<glyph unicode="&#xf9;" horiz-adv-x="1103" d="M137 328v661h189v-647q0 -201 190 -201q121 0 190.5 66t69.5 182v600h189v-989h-181v113q-74 -77 -143.5 -108.5t-169.5 -31.5q-182 0 -268 109q-35 46 -50.5 103t-15.5 143zM342 1305h231l91 -226h-150z" />
<glyph unicode="&#xfa;" horiz-adv-x="1103" d="M137 328v661h189v-647q0 -201 190 -201q121 0 190.5 66t69.5 182v600h189v-989h-181v113q-74 -77 -143.5 -108.5t-169.5 -31.5q-182 0 -268 109q-35 46 -50.5 103t-15.5 143zM494 1079l90 226h231l-172 -226h-149z" />
<glyph unicode="&#xfb;" horiz-adv-x="1103" d="M137 328v661h189v-647q0 -201 190 -201q121 0 190.5 66t69.5 182v600h189v-989h-181v113q-74 -77 -143.5 -108.5t-169.5 -31.5q-182 0 -268 109q-35 46 -50.5 103t-15.5 143zM279 1075l182 230h198l191 -230h-191l-102 139l-98 -139h-180z" />
<glyph unicode="&#xfc;" horiz-adv-x="1103" d="M137 328v661h189v-647q0 -201 190 -201q121 0 190.5 66t69.5 182v600h189v-989h-181v113q-74 -77 -143.5 -108.5t-169.5 -31.5q-182 0 -268 109q-35 46 -50.5 103t-15.5 143zM328 1075v215h174v-215h-174zM641 1075v215h174v-215h-174z" />
<glyph unicode="&#xfd;" horiz-adv-x="978" d="M6 989h203l219 -565q42 -110 74 -209q53 170 67 209l205 565h197l-436 -1108q-40 -102 -99.5 -148t-150.5 -46q-72 0 -152 30v154q72 -27 119 -27q100 0 137 103l27 78zM444 1079l91 226h231l-172 -226h-150z" />
<glyph unicode="&#xfe;" horiz-adv-x="1150" d="M137 -313v1679h189v-477q69 67 139.5 97t161.5 30q200 0 319 -144t119 -385q0 -235 -114.5 -374.5t-307.5 -139.5q-198 0 -317 140v-426h-189zM315 500q0 -178 73 -273.5t208 -95.5q133 0 205.5 95t72.5 270q0 173 -72.5 267.5t-205.5 94.5q-134 0 -207.5 -94t-73.5 -264 z" />
<glyph unicode="&#xff;" horiz-adv-x="978" d="M6 989h203l219 -565q42 -110 74 -209q53 170 67 209l205 565h197l-436 -1108q-40 -102 -99.5 -148t-150.5 -46q-72 0 -152 30v154q72 -27 119 -27q100 0 137 103l27 78zM264 1075v215h174v-215h-174zM578 1075v215h174v-215h-174z" />
<glyph unicode="&#x152;" horiz-adv-x="2150" d="M102 674q0 213 78 377.5t220 255t325 90.5q115 0 199 -35.5t155 -112.5v117h959v-170h-764v-412h698v-159h-698v-455h792v-170h-987v113q-132 -144 -358 -144q-183 0 -323.5 88t-218 248.5t-77.5 368.5zM301 684q0 -247 123.5 -396t327.5 -149q145 0 241 80q86 71 86 236 v436q0 92 -14 142.5t-49 88.5q-47 50 -119 77.5t-154 27.5q-200 0 -321 -148.5t-121 -394.5z" />
<glyph unicode="&#x153;" horiz-adv-x="1845" d="M88 496q0 233 131.5 376.5t345.5 143.5q235 0 379 -187q61 89 158 138t211 49q148 0 252.5 -76t154.5 -219q33 -98 39 -272h-721v-9q0 -141 80.5 -225t206.5 -84q174 0 240 172h178q-35 -155 -147 -242.5t-275 -87.5q-236 0 -375 189q-66 -91 -165 -140t-216 -49 q-214 0 -345.5 144.5t-131.5 378.5zM279 498q0 -175 74.5 -271t209.5 -96q138 0 212.5 92.5t74.5 268.5v10q0 174 -75 266t-212 92q-135 0 -209.5 -95t-74.5 -267zM1038 586h523q-6 135 -69.5 207.5t-176.5 72.5q-116 0 -193 -78t-84 -202z" />
<glyph unicode="&#x178;" horiz-adv-x="1198" d="M-4 1366h229l269 -451q47 -82 108 -202q54 108 109 202l262 451h229l-495 -825v-541h-195v541zM373 1458v215h178v-215h-178zM686 1458v215h178v-215h-178z" />
<glyph unicode="&#x2c6;" d="M227 1075l183 230h198l191 -230h-191l-102 139l-98 -139h-181z" />
<glyph unicode="&#x2dc;" d="M211 1104q20 94 65.5 138t122.5 44q39 0 82 -14l101 -33q24 -8 30 -8q41 0 64 55h137q-43 -190 -195 -190q-24 0 -71 14l-94 31q-33 10 -39 10q-43 0 -66 -47h-137z" />
<glyph unicode="&#x2000;" horiz-adv-x="901" />
<glyph unicode="&#x2001;" horiz-adv-x="1802" />
<glyph unicode="&#x2002;" horiz-adv-x="901" />
<glyph unicode="&#x2003;" horiz-adv-x="1802" />
<glyph unicode="&#x2004;" horiz-adv-x="600" />
<glyph unicode="&#x2005;" horiz-adv-x="450" />
<glyph unicode="&#x2006;" horiz-adv-x="300" />
<glyph unicode="&#x2007;" horiz-adv-x="300" />
<glyph unicode="&#x2008;" horiz-adv-x="225" />
<glyph unicode="&#x2009;" horiz-adv-x="360" />
<glyph unicode="&#x200a;" horiz-adv-x="100" />
<glyph unicode="&#x2010;" horiz-adv-x="606" d="M0 475v170h606v-170h-606z" />
<glyph unicode="&#x2011;" horiz-adv-x="606" d="M0 475v170h606v-170h-606z" />
<glyph unicode="&#x2012;" horiz-adv-x="606" d="M0 475v170h606v-170h-606z" />
<glyph unicode="&#x2013;" horiz-adv-x="1146" d="M104 475v170h940v-170h-940z" />
<glyph unicode="&#x2014;" horiz-adv-x="1310" d="M0 475v170h1311v-170h-1311z" />
<glyph unicode="&#x2018;" horiz-adv-x="487" d="M137 881v174q0 124 54.5 204.5t156.5 106.5v-125q-43 -22 -62.5 -59t-19.5 -97h82v-204h-211z" />
<glyph unicode="&#x2019;" horiz-adv-x="487" d="M137 881v125q43 22 62.5 58.5t19.5 96.5h-82v205h211v-174q0 -124 -54 -203.5t-157 -107.5z" />
<glyph unicode="&#x201a;" horiz-adv-x="487" d="M137 0v205h211v-174q0 -125 -54 -204.5t-157 -105.5v123q43 22 62.5 59t19.5 97h-82z" />
<glyph unicode="&#x201c;" horiz-adv-x="798" d="M137 881v174q0 124 54.5 204.5t156.5 106.5v-125q-43 -22 -62.5 -59t-19.5 -97h82v-204h-211zM451 881v174q0 124 54.5 204.5t156.5 106.5v-125q-43 -22 -62.5 -59t-19.5 -97h82v-204h-211z" />
<glyph unicode="&#x201d;" horiz-adv-x="798" d="M137 881v125q43 22 62.5 58.5t19.5 96.5h-82v205h211v-174q0 -124 -54 -203.5t-157 -107.5zM451 881v125q43 22 62 58.5t19 96.5h-81v205h211v-174q0 -124 -54 -203.5t-157 -107.5z" />
<glyph unicode="&#x201e;" horiz-adv-x="798" d="M137 0v205h211v-174q0 -125 -54 -204.5t-157 -105.5v123q43 22 62.5 59t19.5 97h-82zM451 0v205h211v-174q0 -125 -54 -204.5t-157 -105.5v123q81 41 81 156h-81z" />
<glyph unicode="&#x2022;" horiz-adv-x="1366" d="M401 692q0 120 83.5 202.5t205.5 82.5q114 0 196.5 -83.5t82.5 -199.5q0 -118 -83 -201t-200 -83t-201 82.5t-84 199.5z" />
<glyph unicode="&#x2026;" horiz-adv-x="1462" d="M137 0v205h211v-205h-211zM625 0v205h211v-205h-211zM1112 0v205h211v-205h-211z" />
<glyph unicode="&#x202f;" horiz-adv-x="360" />
<glyph unicode="&#x2039;" horiz-adv-x="462" d="M82 461v205l276 229v-199l-176 -133l176 -133v-199z" />
<glyph unicode="&#x203a;" horiz-adv-x="462" d="M104 231v199l177 133l-177 133v199l277 -229v-205z" />
<glyph unicode="&#x205f;" horiz-adv-x="450" />
<glyph unicode="&#x20ac;" horiz-adv-x="1497" d="M104 496l60 139h117v94h-177l60 139h135q56 245 228 387t413 142q269 0 455 -180l-82 -193q-63 98 -159.5 150.5t-213.5 52.5q-161 0 -276.5 -95t-161.5 -264h743l-59 -139h-707v-94h666l-60 -139h-583q44 -167 161 -262t277 -95q235 0 369 199v-260q-153 -109 -371 -109 q-238 0 -410.5 142.5t-228.5 384.5h-195z" />
<glyph unicode="&#x2122;" horiz-adv-x="1765" d="M23 1251v115h665v-115h-264v-704h-137v704h-264zM819 547v819h162l213 -520q34 -81 43 -119q4 10 14 37t18.5 48.5t12.5 31.5l209 518h164v-815h-131v479l2 113q-6 -17 -43 -115l-193 -477h-106l-199 487l-37 105q2 -49 2 -113v-479h-131z" />
<glyph unicode="&#xe000;" horiz-adv-x="993" d="M0 0v993h993v-993h-993z" />
</font>
</defs>
</svg>
